<svg id="visual" viewBox="0 0 1920 1080" width="1920" height="1080" xmlns="http://www.w3.org/2000/svg" xmlns:xlink="http://www.w3.org/1999/xlink" version="1.1"><rect x="0" y="0" width="1920" height="1080" fill="#18122B"></rect><path d="M0 706L29.2 697C58.3 688 116.7 670 174.8 684C233 698 291 744 349.2 767.3C407.3 790.7 465.7 791.3 523.8 798.5C582 805.7 640 819.3 698.2 792C756.3 764.7 814.7 696.3 872.8 703C931 709.7 989 791.3 1047.2 808.3C1105.3 825.3 1163.7 777.7 1221.8 756.7C1280 735.7 1338 741.3 1396.2 722.5C1454.3 703.7 1512.7 660.3 1570.8 685.3C1629 710.3 1687 803.7 1745.2 841C1803.3 878.3 1861.7 859.7 1890.8 850.3L1920 841L1920 1081L1890.8 1081C1861.7 1081 1803.3 1081 1745.2 1081C1687 1081 1629 1081 1570.8 1081C1512.7 1081 1454.3 1081 1396.2 1081C1338 1081 1280 1081 1221.8 1081C1163.7 1081 1105.3 1081 1047.2 1081C989 1081 931 1081 872.8 1081C814.7 1081 756.3 1081 698.2 1081C640 1081 582 1081 523.8 1081C465.7 1081 407.3 1081 349.2 1081C291 1081 233 1081 174.8 1081C116.7 1081 58.3 1081 29.2 1081L0 1081Z" fill="#393053" stroke-linecap="round" stroke-linejoin="miter"></path></svg>