<svg id="visual" viewBox="0 0 1920 1080" width="1920" height="1080" xmlns="http://www.w3.org/2000/svg" xmlns:xlink="http://www.w3.org/1999/xlink" version="1.1"><rect x="0" y="0" width="1920" height="1080" fill="#18122B"></rect><path d="M0 397L26.7 401.5C53.3 406 106.7 415 160 412.2C213.3 409.3 266.7 394.7 320 411.7C373.3 428.7 426.7 477.3 480 492C533.3 506.7 586.7 487.3 640 470C693.3 452.7 746.7 437.3 800 415.5C853.3 393.7 906.7 365.3 960 361.7C1013.3 358 1066.7 379 1120 387.2C1173.3 395.3 1226.7 390.7 1280 393C1333.3 395.3 1386.7 404.7 1440 403.5C1493.3 402.3 1546.7 390.7 1600 379.7C1653.3 368.7 1706.7 358.3 1760 362.2C1813.3 366 1866.7 384 1893.3 393L1920 402L1920 0L1893.3 0C1866.7 0 1813.3 0 1760 0C1706.7 0 1653.3 0 1600 0C1546.7 0 1493.3 0 1440 0C1386.7 0 1333.3 0 1280 0C1226.7 0 1173.3 0 1120 0C1066.7 0 1013.3 0 960 0C906.7 0 853.3 0 800 0C746.7 0 693.3 0 640 0C586.7 0 533.3 0 480 0C426.7 0 373.3 0 320 0C266.7 0 213.3 0 160 0C106.7 0 53.3 0 26.7 0L0 0Z" fill="#fa7268"></path><path d="M0 442L26.7 416C53.3 390 106.7 338 160 318.7C213.3 299.3 266.7 312.7 320 331.3C373.3 350 426.7 374 480 378C533.3 382 586.7 366 640 364C693.3 362 746.7 374 800 382.2C853.3 390.3 906.7 394.7 960 380.7C1013.3 366.7 1066.7 334.3 1120 335.5C1173.3 336.7 1226.7 371.3 1280 367.7C1333.3 364 1386.7 322 1440 325.7C1493.3 329.3 1546.7 378.7 1600 382.3C1653.3 386 1706.7 344 1760 339C1813.3 334 1866.7 366 1893.3 382L1920 398L1920 0L1893.3 0C1866.7 0 1813.3 0 1760 0C1706.7 0 1653.3 0 1600 0C1546.7 0 1493.3 0 1440 0C1386.7 0 1333.3 0 1280 0C1226.7 0 1173.3 0 1120 0C1066.7 0 1013.3 0 960 0C906.7 0 853.3 0 800 0C746.7 0 693.3 0 640 0C586.7 0 533.3 0 480 0C426.7 0 373.3 0 320 0C266.7 0 213.3 0 160 0C106.7 0 53.3 0 26.7 0L0 0Z" fill="#d15875"></path><path d="M0 239L26.7 230.8C53.3 222.7 106.7 206.3 160 201.8C213.3 197.3 266.7 204.7 320 208C373.3 211.3 426.7 210.7 480 208C533.3 205.3 586.7 200.7 640 222C693.3 243.3 746.7 290.7 800 313.7C853.3 336.7 906.7 335.3 960 314.2C1013.3 293 1066.7 252 1120 240.2C1173.3 228.3 1226.7 245.7 1280 248.8C1333.3 252 1386.7 241 1440 236.8C1493.3 232.7 1546.7 235.3 1600 253.7C1653.3 272 1706.7 306 1760 315.7C1813.3 325.3 1866.7 310.7 1893.3 303.3L1920 296L1920 0L1893.3 0C1866.7 0 1813.3 0 1760 0C1706.7 0 1653.3 0 1600 0C1546.7 0 1493.3 0 1440 0C1386.7 0 1333.3 0 1280 0C1226.7 0 1173.3 0 1120 0C1066.7 0 1013.3 0 960 0C906.7 0 853.3 0 800 0C746.7 0 693.3 0 640 0C586.7 0 533.3 0 480 0C426.7 0 373.3 0 320 0C266.7 0 213.3 0 160 0C106.7 0 53.3 0 26.7 0L0 0Z" fill="#9e4977"></path><path d="M0 244L26.7 224C53.3 204 106.7 164 160 147.8C213.3 131.7 266.7 139.3 320 142.5C373.3 145.7 426.7 144.3 480 154.3C533.3 164.3 586.7 185.7 640 202C693.3 218.3 746.7 229.7 800 224C853.3 218.3 906.7 195.7 960 185.3C1013.3 175 1066.7 177 1120 176.3C1173.3 175.7 1226.7 172.3 1280 179.3C1333.3 186.3 1386.7 203.7 1440 205.2C1493.3 206.7 1546.7 192.3 1600 176.2C1653.3 160 1706.7 142 1760 135.7C1813.3 129.3 1866.7 134.7 1893.3 137.3L1920 140L1920 0L1893.3 0C1866.7 0 1813.3 0 1760 0C1706.7 0 1653.3 0 1600 0C1546.7 0 1493.3 0 1440 0C1386.7 0 1333.3 0 1280 0C1226.7 0 1173.3 0 1120 0C1066.7 0 1013.3 0 960 0C906.7 0 853.3 0 800 0C746.7 0 693.3 0 640 0C586.7 0 533.3 0 480 0C426.7 0 373.3 0 320 0C266.7 0 213.3 0 160 0C106.7 0 53.3 0 26.7 0L0 0Z" fill="#693e6b"></path><path d="M0 150L26.7 136.2C53.3 122.3 106.7 94.7 160 90.7C213.3 86.7 266.7 106.3 320 119.8C373.3 133.3 426.7 140.7 480 138.5C533.3 136.3 586.7 124.7 640 118C693.3 111.3 746.7 109.7 800 115.5C853.3 121.3 906.7 134.7 960 136.5C1013.3 138.3 1066.7 128.7 1120 114C1173.3 99.3 1226.7 79.7 1280 71.3C1333.3 63 1386.7 66 1440 69.2C1493.3 72.3 1546.7 75.7 1600 81.2C1653.3 86.7 1706.7 94.3 1760 103.8C1813.3 113.3 1866.7 124.7 1893.3 130.3L1920 136L1920 0L1893.3 0C1866.7 0 1813.3 0 1760 0C1706.7 0 1653.3 0 1600 0C1546.7 0 1493.3 0 1440 0C1386.7 0 1333.3 0 1280 0C1226.7 0 1173.3 0 1120 0C1066.7 0 1013.3 0 960 0C906.7 0 853.3 0 800 0C746.7 0 693.3 0 640 0C586.7 0 533.3 0 480 0C426.7 0 373.3 0 320 0C266.7 0 213.3 0 160 0C106.7 0 53.3 0 26.7 0L0 0Z" fill="#393053"></path></svg>