<svg id="visual" viewBox="0 0 1920 1080" width="1920" height="1080" xmlns="http://www.w3.org/2000/svg" xmlns:xlink="http://www.w3.org/1999/xlink" version="1.1"><rect x="0" y="0" width="1920" height="1080" fill="#18122B"></rect><path d="M0 707L45.7 709.7C91.3 712.3 182.7 717.7 274.2 709.2C365.7 700.7 457.3 678.3 548.8 680.3C640.3 682.3 731.7 708.7 823 723.5C914.3 738.3 1005.7 741.7 1097 737.8C1188.3 734 1279.7 723 1371.2 713.2C1462.7 703.3 1554.3 694.7 1645.8 691.3C1737.3 688 1828.7 690 1874.3 691L1920 692L1920 1081L1874.3 1081C1828.7 1081 1737.3 1081 1645.8 1081C1554.3 1081 1462.7 1081 1371.2 1081C1279.7 1081 1188.3 1081 1097 1081C1005.7 1081 914.3 1081 823 1081C731.7 1081 640.3 1081 548.8 1081C457.3 1081 365.7 1081 274.2 1081C182.7 1081 91.3 1081 45.7 1081L0 1081Z" fill="#fa7268"></path><path d="M0 809L45.7 793.8C91.3 778.7 182.7 748.3 274.2 753C365.7 757.7 457.3 797.3 548.8 795.8C640.3 794.3 731.7 751.7 823 744.3C914.3 737 1005.7 765 1097 779.5C1188.3 794 1279.7 795 1371.2 791.5C1462.7 788 1554.3 780 1645.8 783.3C1737.3 786.7 1828.7 801.3 1874.3 808.7L1920 816L1920 1081L1874.3 1081C1828.7 1081 1737.3 1081 1645.8 1081C1554.3 1081 1462.7 1081 1371.2 1081C1279.7 1081 1188.3 1081 1097 1081C1005.7 1081 914.3 1081 823 1081C731.7 1081 640.3 1081 548.8 1081C457.3 1081 365.7 1081 274.2 1081C182.7 1081 91.3 1081 45.7 1081L0 1081Z" fill="#d15875"></path><path d="M0 873L45.7 874.3C91.3 875.7 182.7 878.3 274.2 866.2C365.7 854 457.3 827 548.8 817.8C640.3 808.7 731.7 817.3 823 837.5C914.3 857.7 1005.7 889.3 1097 890C1188.3 890.7 1279.7 860.3 1371.2 842.2C1462.7 824 1554.3 818 1645.8 824.7C1737.3 831.3 1828.7 850.7 1874.3 860.3L1920 870L1920 1081L1874.3 1081C1828.7 1081 1737.3 1081 1645.8 1081C1554.3 1081 1462.7 1081 1371.2 1081C1279.7 1081 1188.3 1081 1097 1081C1005.7 1081 914.3 1081 823 1081C731.7 1081 640.3 1081 548.8 1081C457.3 1081 365.7 1081 274.2 1081C182.7 1081 91.3 1081 45.7 1081L0 1081Z" fill="#9e4977"></path><path d="M0 942L45.7 946C91.3 950 182.7 958 274.2 963.5C365.7 969 457.3 972 548.8 958.7C640.3 945.3 731.7 915.7 823 902.8C914.3 890 1005.7 894 1097 896.5C1188.3 899 1279.7 900 1371.2 912.3C1462.7 924.7 1554.3 948.3 1645.8 949.7C1737.3 951 1828.7 930 1874.3 919.5L1920 909L1920 1081L1874.3 1081C1828.7 1081 1737.3 1081 1645.8 1081C1554.3 1081 1462.7 1081 1371.2 1081C1279.7 1081 1188.3 1081 1097 1081C1005.7 1081 914.3 1081 823 1081C731.7 1081 640.3 1081 548.8 1081C457.3 1081 365.7 1081 274.2 1081C182.7 1081 91.3 1081 45.7 1081L0 1081Z" fill="#693e6b"></path><path d="M0 1026L45.7 1025.7C91.3 1025.3 182.7 1024.7 274.2 1016.3C365.7 1008 457.3 992 548.8 984.7C640.3 977.3 731.7 978.7 823 983.7C914.3 988.7 1005.7 997.3 1097 993.3C1188.3 989.3 1279.7 972.7 1371.2 971C1462.7 969.3 1554.3 982.7 1645.8 984C1737.3 985.3 1828.7 974.7 1874.3 969.3L1920 964L1920 1081L1874.3 1081C1828.7 1081 1737.3 1081 1645.8 1081C1554.3 1081 1462.7 1081 1371.2 1081C1279.7 1081 1188.3 1081 1097 1081C1005.7 1081 914.3 1081 823 1081C731.7 1081 640.3 1081 548.8 1081C457.3 1081 365.7 1081 274.2 1081C182.7 1081 91.3 1081 45.7 1081L0 1081Z" fill="#393053"></path></svg>