<svg id="visual" viewBox="0 0 1920 1080" width="1920" height="1080" xmlns="http://www.w3.org/2000/svg" xmlns:xlink="http://www.w3.org/1999/xlink" version="1.1"><rect x="0" y="0" width="1920" height="1080" fill="#18122B"></rect><path d="M0 253L40 279C80 305 160 357 240 390C320 423 400 437 480 433.3C560 429.7 640 408.3 720 396.8C800 385.3 880 383.7 960 377.5C1040 371.3 1120 360.7 1200 332C1280 303.3 1360 256.7 1440 275.8C1520 295 1600 380 1680 398.8C1760 417.7 1840 370.3 1880 346.7L1920 323L1920 0L1880 0C1840 0 1760 0 1680 0C1600 0 1520 0 1440 0C1360 0 1280 0 1200 0C1120 0 1040 0 960 0C880 0 800 0 720 0C640 0 560 0 480 0C400 0 320 0 240 0C160 0 80 0 40 0L0 0Z" fill="#393053" stroke-linecap="round" stroke-linejoin="miter"></path></svg>