<!--?xml version="1.0" standalone="no"?-->
              <svg id="sw-js-blob-svg" viewBox="0 0 100 100" xmlns="http://www.w3.org/2000/svg" version="1.1">
                    <defs> 
                        <linearGradient id="sw-gradient" x1="0" x2="1" y1="1" y2="0">
                            <stop id="stop1" stop-color="rgba(250, 114, 104, 1)" offset="0%"></stop>
                            <stop id="stop2" stop-color="rgba(158, 73, 119, 1)" offset="100%"></stop>
                        </linearGradient>
                    </defs>
                <path fill="url(#sw-gradient)" d="M25.6,-34.5C31.5,-30.8,33.7,-21.2,36.5,-12C39.3,-2.7,42.9,6.2,41.7,14.7C40.5,23.1,34.5,31.2,26.8,35.7C19,40.1,9.5,41,0.8,40C-7.9,38.9,-15.9,35.8,-22.6,31C-29.3,26.2,-34.8,19.7,-37,12.2C-39.2,4.7,-38.1,-3.6,-34.2,-9.8C-30.4,-15.9,-23.8,-19.8,-17.7,-23.5C-11.5,-27.1,-5.8,-30.4,2,-33.2C9.8,-36,19.6,-38.2,25.6,-34.5Z" width="100%" height="100%" transform="translate(50 50)" stroke-width="0" style="transition: all 0.3s ease 0s;" stroke="url(#sw-gradient)"></path>
              </svg>